<svg width="71" height="82" viewBox="0 0 71 82" fill="none" xmlns="http://www.w3.org/2000/svg">
<g filter="url(#filter0_d_3599_7366)">
<path fill-rule="evenodd" clip-rule="evenodd" d="M62.5753 5.56781H7.82013C7.11686 5.56781 6.54675 6.14263 6.54675 6.85171V72.9728C6.54675 73.6818 7.11686 74.2567 7.82012 74.2567H62.5753C63.2785 74.2567 63.8486 73.6818 63.8486 72.9728V6.85171C63.8486 6.14263 63.2785 5.56781 62.5753 5.56781ZM7.82013 3C5.71033 3 4 4.72447 4 6.85171V72.9728C4 75.1 5.71033 76.8245 7.82012 76.8245H62.5753C64.6851 76.8245 66.3954 75.1 66.3954 72.9728V6.85171C66.3954 4.72447 64.6851 3 62.5753 3H7.82013Z" fill="black"/>
</g>
<path fill-rule="evenodd" clip-rule="evenodd" d="M18 21.6041C19.6569 21.6041 21 20.261 21 18.6041C21 16.9473 19.6569 15.6041 18 15.6041C16.3431 15.6041 15 16.9473 15 18.6041C15 20.261 16.3431 21.6041 18 21.6041ZM18 22.6041C20.2091 22.6041 22 20.8133 22 18.6041C22 16.395 20.2091 14.6041 18 14.6041C15.7909 14.6041 14 16.395 14 18.6041C14 20.8133 15.7909 22.6041 18 22.6041Z" fill="black"/>
<path fill-rule="evenodd" clip-rule="evenodd" d="M35 34.6041C36.6569 34.6041 38 33.261 38 31.6041C38 29.9473 36.6569 28.6041 35 28.6041C33.3431 28.6041 32 29.9473 32 31.6041C32 33.261 33.3431 34.6041 35 34.6041ZM35 35.6041C37.2091 35.6041 39 33.8133 39 31.6041C39 29.395 37.2091 27.6041 35 27.6041C32.7909 27.6041 31 29.395 31 31.6041C31 33.8133 32.7909 35.6041 35 35.6041Z" fill="black"/>
<path fill-rule="evenodd" clip-rule="evenodd" d="M21 19.6039V17.6039H50.3774C52.3218 17.6039 54.1866 18.3763 55.5615 19.7513C58.2703 22.4601 58.4368 26.7978 55.9438 29.7063L55.7504 29.9319C54.2966 31.628 52.1743 32.6041 49.9404 32.6041H38V30.6041H49.9404C51.5904 30.6041 53.1581 29.8831 54.2319 28.6303L54.4252 28.4048C56.2382 26.2896 56.1171 23.1353 54.1473 21.1655C53.1475 20.1656 51.7914 19.6039 50.3774 19.6039H21Z" fill="black"/>
<path fill-rule="evenodd" clip-rule="evenodd" d="M15.5544 33.1982C16.7792 31.5652 18.7014 30.6041 20.7427 30.6041H32V32.6041H20.7427C19.3309 32.6041 18.0015 33.2688 17.1544 34.3982L16.8842 34.7585C15.7 36.3375 15.857 38.5469 17.2526 39.9425C17.9964 40.6863 19.0051 41.1041 20.057 41.1041H56V43.1041H20.057C18.4747 43.1041 16.9572 42.4756 15.8384 41.3567C13.739 39.2573 13.5028 35.9337 15.2842 33.5585L15.5544 33.1982Z" fill="black"/>
<path fill-rule="evenodd" clip-rule="evenodd" d="M51.2474 37.9456C51.6111 37.53 52.2429 37.4879 52.6585 37.8516L56.6585 41.3516C56.8755 41.5415 57 41.8158 57 42.1041C57 42.3925 56.8755 42.6668 56.6585 42.8567L52.6585 46.3567C52.2429 46.7204 51.6111 46.6783 51.2474 46.2626C50.8838 45.847 50.9259 45.2152 51.3415 44.8516L54.4814 42.1041L51.3415 39.3567C50.9259 38.993 50.8838 38.3613 51.2474 37.9456Z" fill="black"/>
<path fill-rule="evenodd" clip-rule="evenodd" d="M14 56.1041C14 55.5518 14.4477 55.1041 15 55.1041H45.5C46.0523 55.1041 46.5 55.5518 46.5 56.1041C46.5 56.6564 46.0523 57.1041 45.5 57.1041H15C14.4477 57.1041 14 56.6564 14 56.1041Z" fill="black"/>
<path fill-rule="evenodd" clip-rule="evenodd" d="M14 62.6041C14 62.0518 14.4477 61.6041 15 61.6041H36C36.5523 61.6041 37 62.0518 37 62.6041C37 63.1564 36.5523 63.6041 36 63.6041H15C14.4477 63.6041 14 63.1564 14 62.6041Z" fill="black"/>
<defs>
<filter id="filter0_d_3599_7366" x="0" y="0" width="70.3954" height="81.8245" filterUnits="userSpaceOnUse" color-interpolation-filters="sRGB">
<feFlood flood-opacity="0" result="BackgroundImageFix"/>
<feColorMatrix in="SourceAlpha" type="matrix" values="0 0 0 0 0 0 0 0 0 0 0 0 0 0 0 0 0 0 127 0" result="hardAlpha"/>
<feOffset dy="1"/>
<feGaussianBlur stdDeviation="2"/>
<feComposite in2="hardAlpha" operator="out"/>
<feColorMatrix type="matrix" values="0 0 0 0 0 0 0 0 0 0 0 0 0 0 0 0 0 0 0.25 0"/>
<feBlend mode="normal" in2="BackgroundImageFix" result="effect1_dropShadow_3599_7366"/>
<feBlend mode="normal" in="SourceGraphic" in2="effect1_dropShadow_3599_7366" result="shape"/>
</filter>
</defs>
</svg>
