<svg width="116" height="76" viewBox="0 0 116 76" fill="none" xmlns="http://www.w3.org/2000/svg">
<g filter="url(#filter0_d_3599_6954)">
<path d="M62 55.3219V58H110V55.3219C109.867 52.6439 100.825 48.7607 95.9058 48.7607C91.9701 48.7607 91.1634 45.0114 91.2521 43.1368C95.826 39.9231 97.59 35.7274 97.9003 34.0313C101.304 29.2108 99.5845 27.5594 98.2992 27.3362V19.8376C98.2992 16.6239 96.5706 11 85.5346 11C76.7058 11 74.41 16.8917 74.3657 19.8376V27.3362C71.3873 28.086 73.3019 32.1121 74.6316 34.0313C75.5889 38.7447 79.1967 42.0655 80.8809 43.1368C81.4127 47.2074 78.0886 48.5821 76.3601 48.7607C64.9784 49.7248 62.0443 53.5366 62 55.3219Z" stroke="black" stroke-width="3" stroke-linejoin="round" shape-rendering="crispEdges"/>
</g>
<g filter="url(#filter1_d_3599_6954)">
<path d="M6 55.3219V58H54V55.3219C53.867 52.6439 44.8255 48.7607 39.9058 48.7607C35.9701 48.7607 35.1634 45.0114 35.2521 43.1368C39.826 39.9231 41.59 35.7274 41.9003 34.0313C45.3042 29.2108 43.5845 27.5594 42.2992 27.3362V19.8376C42.2992 16.6239 40.5706 11 29.5346 11C20.7058 11 18.41 16.8917 18.3657 19.8376V27.3362C15.3873 28.086 17.3019 32.1121 18.6316 34.0313C19.5889 38.7447 23.1967 42.0655 24.8809 43.1368C25.4127 47.2074 22.0886 48.5821 20.3601 48.7607C8.97839 49.7248 6.04432 53.5366 6 55.3219Z" stroke="black" stroke-width="3" stroke-linejoin="round" shape-rendering="crispEdges"/>
</g>
<path fill-rule="evenodd" clip-rule="evenodd" d="M45.2604 14.2301V25.3738L44.5024 25.5629C43.721 25.7578 43.3866 26.1164 43.2221 26.4987C43.0319 26.941 42.9998 27.5829 43.1706 28.4146C43.5117 30.0766 44.5583 32.0019 45.4511 33.2788L45.5697 33.4484L45.6112 33.651C46.8741 39.8117 51.6748 44.2039 53.8877 45.5984L54.2846 45.8486L54.346 46.3137C54.7614 49.4638 53.6588 51.6746 52.0449 53.1011C50.4829 54.4818 48.5057 55.0779 47.1461 55.217L47.137 55.218L47.128 55.2187C39.2736 55.8779 34.4414 57.5036 31.5986 59.193C28.7335 60.8957 28.025 62.5642 28 63.3106V66H93V63.327C92.985 63.1364 92.8834 62.8432 92.5833 62.4433C92.2779 62.0365 91.8155 61.5846 91.1994 61.1052C89.9681 60.1473 88.2363 59.1669 86.2607 58.2832C82.2907 56.5075 77.5649 55.2222 74.3269 55.2222C71.1931 55.2222 69.2257 53.7092 68.1104 51.8124C67.0327 49.9795 66.7639 47.8277 66.8322 46.3968L66.8556 45.905L67.2597 45.6237C73.4227 41.3334 75.741 35.7634 76.1274 33.6703L76.1677 33.4521L76.2965 33.2715C78.6283 29.9996 79.023 28.0399 78.8562 26.9957C78.7081 26.0684 78.0745 25.6773 77.4981 25.5781L76.6676 25.4352V14.2222C76.6676 12.1685 76.1111 9.40813 73.8326 7.15558C71.5547 4.90353 67.3949 3 59.8504 3C53.9281 3 50.3269 4.94779 48.1922 7.26144C46.0326 9.60218 45.2899 12.4079 45.2604 14.2301ZM46.7223 5.90522C49.2863 3.12628 53.4492 1 59.8504 1C67.7104 1 72.4592 2.98536 75.2387 5.73331C78.0178 8.48076 78.6676 11.8315 78.6676 14.2222V23.8527C79.6469 24.2694 80.5877 25.1557 80.8312 26.6802C81.1202 28.4899 80.3713 30.9504 78.0495 34.2564C77.4804 36.904 74.9418 42.537 68.8234 46.9662C68.8439 48.0945 69.113 49.5717 69.8345 50.7987C70.6246 52.1426 71.967 53.2222 74.3269 53.2222C77.9559 53.2222 82.9739 54.6221 87.0773 56.4575C89.1384 57.3794 91.0257 58.4361 92.4275 59.5267C93.1279 60.0716 93.7356 60.6469 94.1828 61.2427C94.6249 61.8317 94.9619 62.5101 94.9987 63.2462L95 63.2713V68H26V63.2838L26.0003 63.2712C26.0436 61.5432 27.4209 59.3492 30.5769 57.4737C33.7678 55.5774 38.924 53.9012 46.9512 53.2265C48.0042 53.117 49.5481 52.6388 50.7203 51.6026C51.7755 50.67 52.5858 49.2423 52.4101 47.0188C49.8202 45.2349 45.0874 40.6663 43.6946 34.2547C42.7522 32.8718 41.6143 30.7794 41.2114 28.8168C41.0017 27.7952 40.965 26.6847 41.3849 25.7085C41.7377 24.8883 42.3691 24.2622 43.2604 23.8764V14.2146L43.2605 14.207C43.2947 11.955 44.1862 8.65396 46.7223 5.90522Z" fill="white" stroke="white"/>
<path fill-rule="evenodd" clip-rule="evenodd" d="M41.2604 14.2301V25.3738L40.5024 25.5629C39.721 25.7578 39.3866 26.1164 39.2221 26.4987C39.0319 26.941 38.9998 27.5829 39.1706 28.4146C39.5117 30.0766 40.5583 32.0019 41.4511 33.2788L41.5697 33.4484L41.6112 33.651C42.8741 39.8117 47.6748 44.2039 49.8877 45.5984L50.2846 45.8486L50.346 46.3137C50.7614 49.4638 49.6588 51.6746 48.0449 53.1011C46.4829 54.4818 44.5057 55.0779 43.1461 55.217L43.137 55.218L43.128 55.2187C35.2736 55.8779 30.4414 57.5036 27.5986 59.193C24.7335 60.8957 24.025 62.5642 24 63.3106V66H89V63.327C88.985 63.1364 88.8834 62.8432 88.5833 62.4433C88.2779 62.0365 87.8155 61.5846 87.1994 61.1052C85.9681 60.1473 84.2363 59.1669 82.2607 58.2832C78.2907 56.5075 73.5649 55.2222 70.3269 55.2222C67.1931 55.2222 65.2257 53.7092 64.1104 51.8124C63.0327 49.9795 62.7639 47.8277 62.8322 46.3968L62.8556 45.905L63.2597 45.6237C69.4227 41.3334 71.741 35.7634 72.1274 33.6703L72.1677 33.4521L72.2965 33.2715C74.6283 29.9996 75.023 28.0399 74.8562 26.9957C74.7081 26.0684 74.0745 25.6773 73.4981 25.5781L72.6676 25.4352V14.2222C72.6676 12.1685 72.1111 9.40813 69.8326 7.15558C67.5547 4.90353 63.3949 3 55.8504 3C49.9281 3 46.3269 4.94779 44.1922 7.26144C42.0326 9.60218 41.2899 12.4079 41.2604 14.2301ZM42.7223 5.90522C45.2863 3.12628 49.4492 1 55.8504 1C63.7104 1 68.4592 2.98536 71.2387 5.73331C74.0178 8.48076 74.6676 11.8315 74.6676 14.2222V23.8527C75.6469 24.2694 76.5877 25.1557 76.8312 26.6802C77.1202 28.4899 76.3713 30.9504 74.0495 34.2564C73.4804 36.904 70.9418 42.537 64.8234 46.9662C64.8439 48.0945 65.113 49.5717 65.8345 50.7987C66.6246 52.1426 67.967 53.2222 70.3269 53.2222C73.9559 53.2222 78.9739 54.6221 83.0773 56.4575C85.1384 57.3794 87.0257 58.4361 88.4275 59.5267C89.1279 60.0716 89.7356 60.6469 90.1828 61.2427C90.6249 61.8317 90.9619 62.5101 90.9987 63.2462L91 63.2713V68H22V63.2838L22.0003 63.2712C22.0436 61.5432 23.4209 59.3492 26.5769 57.4737C29.7678 55.5774 34.924 53.9012 42.9512 53.2265C44.0042 53.117 45.5481 52.6388 46.7203 51.6026C47.7755 50.67 48.5858 49.2423 48.4101 47.0188C45.8202 45.2349 41.0874 40.6663 39.6946 34.2547C38.7522 32.8718 37.6143 30.7794 37.2114 28.8168C37.0017 27.7952 36.965 26.6847 37.3849 25.7085C37.7377 24.8883 38.3691 24.2622 39.2604 23.8764V14.2146L39.2605 14.207C39.2947 11.955 40.1862 8.65396 42.7223 5.90522Z" fill="white" stroke="white"/>
<g filter="url(#filter2_d_3599_6954)">
<path d="M25 63.2963V67H92V63.2963C91.8144 59.5926 79.1939 54.2222 72.3269 54.2222C66.8332 54.2222 65.7073 49.037 65.831 46.4444C72.2155 42 74.6777 36.1975 75.1108 33.8519C79.8621 27.1852 77.4617 24.9012 75.6676 24.5926V14.2222C75.6676 9.77778 73.2548 2 57.8504 2C45.5269 2 42.3223 10.1481 42.2604 14.2222V24.5926C38.103 25.6296 40.7756 31.1975 42.6316 33.8519C43.9679 40.3704 49.0037 44.963 51.3546 46.4444C52.097 52.0741 47.4571 53.9753 45.0443 54.2222C29.1573 55.5556 25.0619 60.8272 25 63.2963Z" fill="#FCFFFC"/>
<path d="M25 63.2963V67H92V63.2963C91.8144 59.5926 79.1939 54.2222 72.3269 54.2222C66.8332 54.2222 65.7073 49.037 65.831 46.4444C72.2155 42 74.6777 36.1975 75.1108 33.8519C79.8621 27.1852 77.4617 24.9012 75.6676 24.5926V14.2222C75.6676 9.77778 73.2548 2 57.8504 2C45.5269 2 42.3223 10.1481 42.2604 14.2222V24.5926C38.103 25.6296 40.7756 31.1975 42.6316 33.8519C43.9679 40.3704 49.0037 44.963 51.3546 46.4444C52.097 52.0741 47.4571 53.9753 45.0443 54.2222C29.1573 55.5556 25.0619 60.8272 25 63.2963Z" stroke="#FCFFFC" stroke-linejoin="round"/>
</g>
<path fill-rule="evenodd" clip-rule="evenodd" d="M43.2604 14.2301V25.3738L42.5024 25.5629C41.721 25.7578 41.3866 26.1164 41.2221 26.4987C41.0319 26.941 40.9998 27.5829 41.1706 28.4146C41.5117 30.0766 42.5583 32.0019 43.4511 33.2788L43.5697 33.4484L43.6112 33.651C44.8741 39.8117 49.6748 44.2039 51.8877 45.5984L52.2846 45.8486L52.346 46.3137C52.7614 49.4638 51.6588 51.6746 50.0449 53.1011C48.4829 54.4818 46.5057 55.0779 45.1461 55.217L45.137 55.218L45.128 55.2187C37.2736 55.8779 32.4414 57.5036 29.5986 59.193C26.7335 60.8957 26.025 62.5642 26 63.3106V66H91V63.327C90.985 63.1364 90.8834 62.8432 90.5833 62.4433C90.2779 62.0365 89.8155 61.5846 89.1994 61.1052C87.9681 60.1473 86.2363 59.1669 84.2607 58.2832C80.2907 56.5075 75.5649 55.2222 72.3269 55.2222C69.1931 55.2222 67.2257 53.7092 66.1104 51.8124C65.0327 49.9795 64.7639 47.8277 64.8322 46.3968L64.8556 45.905L65.2597 45.6237C71.4227 41.3334 73.741 35.7634 74.1274 33.6703L74.1677 33.4521L74.2965 33.2715C76.6283 29.9996 77.023 28.0399 76.8562 26.9957C76.7081 26.0684 76.0745 25.6773 75.4981 25.5781L74.6676 25.4352V14.2222C74.6676 12.1685 74.1111 9.40813 71.8326 7.15558C69.5547 4.90353 65.3949 3 57.8504 3C51.9281 3 48.3269 4.94779 46.1922 7.26144C44.0326 9.60218 43.2899 12.4079 43.2604 14.2301ZM44.7223 5.90522C47.2863 3.12628 51.4492 1 57.8504 1C65.7104 1 70.4592 2.98536 73.2387 5.73331C76.0178 8.48076 76.6676 11.8315 76.6676 14.2222V23.8527C77.6469 24.2694 78.5877 25.1557 78.8312 26.6802C79.1202 28.4899 78.3713 30.9504 76.0495 34.2564C75.4804 36.904 72.9418 42.537 66.8234 46.9662C66.8439 48.0945 67.113 49.5717 67.8345 50.7987C68.6246 52.1426 69.967 53.2222 72.3269 53.2222C75.9559 53.2222 80.9739 54.6221 85.0773 56.4575C87.1384 57.3794 89.0257 58.4361 90.4275 59.5267C91.1279 60.0716 91.7356 60.6469 92.1828 61.2427C92.6249 61.8317 92.9619 62.5101 92.9987 63.2462L93 63.2713V68H24V63.2838L24.0003 63.2712C24.0436 61.5432 25.4209 59.3492 28.5769 57.4737C31.7678 55.5774 36.924 53.9012 44.9512 53.2265C46.0042 53.117 47.5481 52.6388 48.7203 51.6026C49.7755 50.67 50.5858 49.2423 50.4101 47.0188C47.8202 45.2349 43.0874 40.6663 41.6946 34.2547C40.7522 32.8718 39.6143 30.7794 39.2114 28.8168C39.0017 27.7952 38.965 26.6847 39.3849 25.7085C39.7377 24.8883 40.3691 24.2622 41.2604 23.8764V14.2146L41.2605 14.207C41.2947 11.955 42.1862 8.65396 44.7223 5.90522Z" fill="black" stroke="black"/>
<defs>
<filter id="filter0_d_3599_6954" x="56.5" y="9.5" width="59" height="58" filterUnits="userSpaceOnUse" color-interpolation-filters="sRGB">
<feFlood flood-opacity="0" result="BackgroundImageFix"/>
<feColorMatrix in="SourceAlpha" type="matrix" values="0 0 0 0 0 0 0 0 0 0 0 0 0 0 0 0 0 0 127 0" result="hardAlpha"/>
<feOffset dy="4"/>
<feGaussianBlur stdDeviation="2"/>
<feComposite in2="hardAlpha" operator="out"/>
<feColorMatrix type="matrix" values="0 0 0 0 0 0 0 0 0 0 0 0 0 0 0 0 0 0 0.25 0"/>
<feBlend mode="normal" in2="BackgroundImageFix" result="effect1_dropShadow_3599_6954"/>
<feBlend mode="normal" in="SourceGraphic" in2="effect1_dropShadow_3599_6954" result="shape"/>
</filter>
<filter id="filter1_d_3599_6954" x="0.5" y="9.5" width="59" height="58" filterUnits="userSpaceOnUse" color-interpolation-filters="sRGB">
<feFlood flood-opacity="0" result="BackgroundImageFix"/>
<feColorMatrix in="SourceAlpha" type="matrix" values="0 0 0 0 0 0 0 0 0 0 0 0 0 0 0 0 0 0 127 0" result="hardAlpha"/>
<feOffset dy="4"/>
<feGaussianBlur stdDeviation="2"/>
<feComposite in2="hardAlpha" operator="out"/>
<feColorMatrix type="matrix" values="0 0 0 0 0 0 0 0 0 0 0 0 0 0 0 0 0 0 0.25 0"/>
<feBlend mode="normal" in2="BackgroundImageFix" result="effect1_dropShadow_3599_6954"/>
<feBlend mode="normal" in="SourceGraphic" in2="effect1_dropShadow_3599_6954" result="shape"/>
</filter>
<filter id="filter2_d_3599_6954" x="20.5" y="1.5" width="76" height="74" filterUnits="userSpaceOnUse" color-interpolation-filters="sRGB">
<feFlood flood-opacity="0" result="BackgroundImageFix"/>
<feColorMatrix in="SourceAlpha" type="matrix" values="0 0 0 0 0 0 0 0 0 0 0 0 0 0 0 0 0 0 127 0" result="hardAlpha"/>
<feOffset dy="4"/>
<feGaussianBlur stdDeviation="2"/>
<feComposite in2="hardAlpha" operator="out"/>
<feColorMatrix type="matrix" values="0 0 0 0 0 0 0 0 0 0 0 0 0 0 0 0 0 0 0.25 0"/>
<feBlend mode="normal" in2="BackgroundImageFix" result="effect1_dropShadow_3599_6954"/>
<feBlend mode="normal" in="SourceGraphic" in2="effect1_dropShadow_3599_6954" result="shape"/>
</filter>
</defs>
</svg>
