<svg width="16130" height="546" viewBox="0 0 16130 546" fill="none" xmlns="http://www.w3.org/2000/svg">
<path d="M1 205.589C1 205.589 8.70645 272.311 415.606 128.311C822.505 -15.6887 1275.13 -17.3366 1912.19 34.1078C2549.26 85.5522 3186.32 526.663 3823.39 543.811C4460.45 560.959 5181.26 96.2147 5471.02 34.1075C5760.78 -27.9996 6084.45 8 6297.15 60.0004C6509.84 112.001 6778.03 205.589 7184.93 288.236C7591.83 370.883 8065 254.001 8065 254.001" stroke="black" stroke-width="2"/>
<path d="M8017.5 264C8017.5 264 8070 261.5 8479.61 128.311C8889.21 -4.87719 9339.13 -17.3366 9976.19 34.1079C10613.3 85.5523 11250.3 526.663 11887.4 543.811C12524.4 560.959 13146.6 86.3819 13535 34.1076C13923.4 -18.1667 14046.7 4.00027 14225.5 34.1079C14404.3 64.2155 14842 205.589 15248.9 288.236C15655.8 370.883 16129 205.589 16129 205.589" stroke="black" stroke-width="2"/>
</svg>
