<svg width="80" height="100" viewBox="0 0 80 100" fill="none" xmlns="http://www.w3.org/2000/svg">
<g filter="url(#filter0_d_3599_7304)">
<path fill-rule="evenodd" clip-rule="evenodd" d="M62.5753 11.9637H7.82013C7.11686 11.9637 6.54675 12.5385 6.54675 13.2476V79.3686C6.54675 80.0777 7.11686 80.6525 7.82012 80.6525H62.5753C63.2785 80.6525 63.8486 80.0777 63.8486 79.3686V13.2476C63.8486 12.5385 63.2785 11.9637 62.5753 11.9637ZM7.82013 9.39587C5.71033 9.39587 4 11.1203 4 13.2476V79.3686C4 81.4959 5.71033 83.2203 7.82012 83.2203H62.5753C64.6851 83.2203 66.3954 81.4959 66.3954 79.3686V13.2476C66.3954 11.1203 64.6851 9.39587 62.5753 9.39587H7.82013Z" fill="black"/>
</g>
<path fill-rule="evenodd" clip-rule="evenodd" d="M18.7693 24.8319H11.7996C11.4788 24.8319 11.2188 25.1324 11.2188 25.503V33.5566C11.2188 33.9273 11.4788 34.2277 11.7996 34.2277H18.7693C19.0901 34.2277 19.3501 33.9273 19.3501 33.5566V25.503C19.3501 25.1324 19.0901 24.8319 18.7693 24.8319ZM11.7996 24.1608C11.158 24.1608 10.638 24.7617 10.638 25.503V33.5566C10.638 34.2979 11.158 34.8989 11.7996 34.8989H18.7693C19.4108 34.8989 19.9309 34.2979 19.9309 33.5566V25.503C19.9309 24.7617 19.4108 24.1608 18.7693 24.1608H11.7996Z" fill="black"/>
<path fill-rule="evenodd" clip-rule="evenodd" d="M25.2409 28.8586C25.2409 28.488 25.5325 28.1875 25.8922 28.1875H59.1062C59.4659 28.1875 59.7575 28.488 59.7575 28.8586C59.7575 29.2293 59.4659 29.5298 59.1062 29.5298H25.8922C25.5325 29.5298 25.2409 29.2293 25.2409 28.8586Z" fill="black"/>
<path fill-rule="evenodd" clip-rule="evenodd" d="M26.3742 21.6859C26.6334 21.9654 26.6334 22.4187 26.3742 22.6983L17.745 32.0046C17.4858 32.2842 17.0655 32.2842 16.8063 32.0046L13.4874 28.4253C13.2281 28.1457 13.2281 27.6924 13.4874 27.4129C13.7466 27.1333 14.1669 27.1333 14.4261 27.4129L17.2756 30.486L25.4354 21.6859C25.6946 21.4063 26.1149 21.4063 26.3742 21.6859Z" fill="black"/>
<path fill-rule="evenodd" clip-rule="evenodd" d="M18.7693 40.939H11.7996C11.4788 40.939 11.2188 41.2394 11.2188 41.6101V49.6637C11.2188 50.0343 11.4788 50.3348 11.7996 50.3348H18.7693C19.0901 50.3348 19.3501 50.0343 19.3501 49.6637V41.6101C19.3501 41.2394 19.0901 40.939 18.7693 40.939ZM11.7996 40.2678C11.158 40.2678 10.638 40.8688 10.638 41.6101V49.6637C10.638 50.405 11.158 51.0059 11.7996 51.0059H18.7693C19.4108 51.0059 19.9309 50.405 19.9309 49.6637V41.6101C19.9309 40.8688 19.4108 40.2678 18.7693 40.2678H11.7996Z" fill="black"/>
<path fill-rule="evenodd" clip-rule="evenodd" d="M25.2409 46.3082C25.2409 45.9376 25.5325 45.6371 25.8922 45.6371H59.1062C59.4659 45.6371 59.7575 45.9376 59.7575 46.3082C59.7575 46.6789 59.4659 46.9793 59.1062 46.9793H25.8922C25.5325 46.9793 25.2409 46.6789 25.2409 46.3082Z" fill="black"/>
<path fill-rule="evenodd" clip-rule="evenodd" d="M26.3742 39.109C26.6334 39.3536 26.6334 39.7502 26.3742 39.9949L17.745 48.1379C17.4858 48.3825 17.0655 48.3825 16.8063 48.1379L13.4874 45.006C13.2281 44.7613 13.2281 44.3647 13.4874 44.1201C13.7466 43.8755 14.1669 43.8755 14.4261 44.1201L17.2756 46.8091L25.4354 39.109C25.6946 38.8644 26.1149 38.8644 26.3742 39.109Z" fill="black"/>
<path fill-rule="evenodd" clip-rule="evenodd" d="M18.7693 58.3046H11.7996C11.4788 58.3046 11.2188 58.5676 11.2188 58.8919V65.9388C11.2188 66.2631 11.4788 66.526 11.7996 66.526H18.7693C19.0901 66.526 19.3501 66.2631 19.3501 65.9388V58.8919C19.3501 58.5676 19.0901 58.3046 18.7693 58.3046ZM11.7996 57.7174C11.158 57.7174 10.638 58.2432 10.638 58.8919V65.9388C10.638 66.5874 11.158 67.1132 11.7996 67.1132H18.7693C19.4108 67.1132 19.9309 66.5874 19.9309 65.9388V58.8919C19.9309 58.2432 19.4108 57.7174 18.7693 57.7174H11.7996Z" fill="black"/>
<path fill-rule="evenodd" clip-rule="evenodd" d="M25.2409 62.4153C25.2409 62.0446 25.5325 61.7441 25.8922 61.7441H59.1062C59.4659 61.7441 59.7575 62.0446 59.7575 62.4153C59.7575 62.7859 59.4659 63.0864 59.1062 63.0864H25.8922C25.5325 63.0864 25.2409 62.7859 25.2409 62.4153Z" fill="black"/>
<path fill-rule="evenodd" clip-rule="evenodd" d="M26.3742 55.2425C26.6334 55.5221 26.6334 55.9753 26.3742 56.2549L17.745 65.5613C17.4858 65.8408 17.0655 65.8408 16.8063 65.5613L13.4874 61.9819C13.2281 61.7023 13.2281 61.2491 13.4874 60.9695C13.7466 60.6899 14.1669 60.6899 14.4261 60.9695L17.2756 64.0427L25.4354 55.2425C25.6946 54.9629 26.1149 54.9629 26.3742 55.2425Z" fill="black"/>
<path d="M21.6768 6.2867C21.8483 5.7386 22.33 5.3689 22.8724 5.3689H47.5228C48.0653 5.3689 48.5469 5.7386 48.7185 6.2867L50.3989 11.6557C50.671 12.5249 50.0635 13.4225 49.2033 13.4225H21.192C20.3317 13.4225 19.7243 12.5249 19.9963 11.6557L21.6768 6.2867Z" fill="black"/>
<path d="M31.8789 3.22143C31.8789 1.44228 33.3648 0 35.1978 0Lnan nanL35.1978 0C37.0308 0 38.5167 1.44228 38.5167 3.22143V5.36905H31.8789V3.22143Z" fill="black"/>
<g filter="url(#filter1_d_3599_7304)">
<path fill-rule="evenodd" clip-rule="evenodd" d="M57.6599 88.9194C65.9053 88.9194 72.5896 82.1612 72.5896 73.8244C72.5896 65.4877 65.9053 58.7295 57.6599 58.7295C49.4145 58.7295 42.7303 65.4877 42.7303 73.8244C42.7303 82.1612 49.4145 88.9194 57.6599 88.9194ZM57.3553 82.7583C62.067 82.7583 65.8866 78.8964 65.8866 74.1326C65.8866 69.3687 62.067 65.5069 57.3553 65.5069C52.6437 65.5069 48.8241 69.3687 48.8241 74.1326C48.8241 78.8964 52.6437 82.7583 57.3553 82.7583Z" fill="black"/>
<path d="M54.3083 55.0328H60.4021L61.6208 59.9618H53.0896L54.3083 55.0328Z" fill="black"/>
<path d="M53.0897 87.0714H61.6209L60.4021 92.0004H54.3084L53.0897 87.0714Z" fill="black"/>
<path d="M69.8951 59.3458L73.3627 64.4122L69.9633 68.4492L64.6676 61.5344L69.8951 59.3458Z" fill="black"/>
<path d="M69.8952 88.7812L73.3628 83.7148L69.3541 79.6777L64.6677 85.9764L69.8952 88.7812Z" fill="black"/>
<path d="M45.5202 79.0614L50.2066 85.36L44.9791 88.1648L41.5115 83.0984L45.5202 79.0614Z" fill="black"/>
<path d="M44.911 68.4494L49.5973 62.1507L44.3698 59.3459L40.9022 64.4123L44.911 68.4494Z" fill="black"/>
<path d="M75.6364 71.0521L75.6364 77.2133L70.7614 78.4455L70.7614 69.8198L75.6364 71.0521Z" fill="black"/>
<path d="M43.9491 69.8198L43.9491 78.4455L38.4647 77.2133L38.4647 71.0521L43.9491 69.8198Z" fill="black"/>
<ellipse cx="57.0504" cy="73.8245" rx="9.29293" ry="9.39584" fill="white"/>
</g>
<defs>
<filter id="filter0_d_3599_7304" x="0" y="6.39587" width="70.3954" height="81.8245" filterUnits="userSpaceOnUse" color-interpolation-filters="sRGB">
<feFlood flood-opacity="0" result="BackgroundImageFix"/>
<feColorMatrix in="SourceAlpha" type="matrix" values="0 0 0 0 0 0 0 0 0 0 0 0 0 0 0 0 0 0 127 0" result="hardAlpha"/>
<feOffset dy="1"/>
<feGaussianBlur stdDeviation="2"/>
<feComposite in2="hardAlpha" operator="out"/>
<feColorMatrix type="matrix" values="0 0 0 0 0 0 0 0 0 0 0 0 0 0 0 0 0 0 0.25 0"/>
<feBlend mode="normal" in2="BackgroundImageFix" result="effect1_dropShadow_3599_7304"/>
<feBlend mode="normal" in="SourceGraphic" in2="effect1_dropShadow_3599_7304" result="shape"/>
</filter>
<filter id="filter1_d_3599_7304" x="34.4648" y="55.0328" width="45.1716" height="44.9675" filterUnits="userSpaceOnUse" color-interpolation-filters="sRGB">
<feFlood flood-opacity="0" result="BackgroundImageFix"/>
<feColorMatrix in="SourceAlpha" type="matrix" values="0 0 0 0 0 0 0 0 0 0 0 0 0 0 0 0 0 0 127 0" result="hardAlpha"/>
<feOffset dy="4"/>
<feGaussianBlur stdDeviation="2"/>
<feComposite in2="hardAlpha" operator="out"/>
<feColorMatrix type="matrix" values="0 0 0 0 0 0 0 0 0 0 0 0 0 0 0 0 0 0 0.25 0"/>
<feBlend mode="normal" in2="BackgroundImageFix" result="effect1_dropShadow_3599_7304"/>
<feBlend mode="normal" in="SourceGraphic" in2="effect1_dropShadow_3599_7304" result="shape"/>
</filter>
</defs>
</svg>
