<svg width="62" height="63" viewBox="0 0 62 63" fill="none" xmlns="http://www.w3.org/2000/svg">
<path d="M29.04 62.36H32.4C32.96 58.84 34.56 55.08 37.12 51C42.16 42.92 52.48 35.08 61.52 33.24V29.88C57.04 28.92 52.72 26.92 48.56 23.96C40.16 17.96 33.76 9.08 32.4 0.919999H29.04C28.24 5.24 26.4 9.4 23.52 13.48C17.76 21.64 8.96 27.88 0.0800002 29.88V33.24C4.48 34.12 9.04 36.36 13.68 39.88C22.96 46.92 27.92 55.48 29.04 62.36ZM30.16 60.44C29.52 52.76 27.04 43.56 24.08 38.36C18.64 35.32 9.28 32.84 2 32.28V31.16C9.36 30.6 18.96 27.88 24.08 24.92C27.12 19.56 29.52 10.52 30.16 3H31.28C32.08 11.32 34.56 20.12 37.36 24.92C42.32 27.88 52.4 30.6 59.44 31.16V32.28C52.4 32.76 42.72 35.32 37.36 38.36C34.56 43.08 32.08 52.12 31.28 60.44H30.16Z" fill="#001405"/>
</svg>
