<svg width="76" height="76" viewBox="0 0 76 76" fill="none" xmlns="http://www.w3.org/2000/svg">
<path d="M61.4296 20.2222C62.4256 29.6125 63.95 49.5418 62.0792 54.1367C65.6302 49.3048 70.4718 35.7572 61.4296 20.2222Z" fill="#585C53"/>
<path fill-rule="evenodd" clip-rule="evenodd" d="M61.3004 20.2374L61.5403 20.1508C70.6149 35.7413 65.7609 49.3505 62.1819 54.2204L61.9597 54.0829C62.4168 52.9603 62.6724 50.8772 62.7771 48.214C62.8815 45.5581 62.8354 42.347 62.6996 38.9836C62.428 32.257 61.7982 24.9304 61.3004 20.2374ZM61.6234 20.8257C62.1103 25.5322 62.6989 32.5263 62.9592 38.9719C63.0951 42.339 63.1416 45.5586 63.0367 48.2253C62.9539 50.3322 62.7764 52.1075 62.4684 53.3384C65.8723 48.0806 69.8189 35.373 61.6234 20.8257Z" fill="black"/>
<path d="M51.9455 47.8461C49.8669 31.4358 35.3161 14.4785 28.3005 8.05117C30.8989 6.91157 38.1483 5.31613 46.3591 8.05117C52.9069 33.5418 52.8117 45.2022 51.9455 47.8461Z" fill="#656B5D"/>
<path fill-rule="evenodd" clip-rule="evenodd" d="M28.5453 8.09493C32.0628 11.3445 37.3713 17.1292 42.0804 24.1261C46.7298 31.0343 50.8032 39.1363 51.9821 47.1545C52.1133 46.4595 52.2083 45.4509 52.229 44.0953C52.2573 42.2393 52.1462 39.7433 51.8035 36.5316C51.1193 30.1204 49.5125 20.8626 46.2522 8.15926C38.299 5.53143 31.2654 6.97786 28.5453 8.09493ZM28.2506 7.9251C30.8745 6.77427 38.1556 5.17527 46.3983 7.92095L46.466 7.9435L46.4845 8.01564C49.7597 20.7658 51.3744 30.0606 52.0617 36.501C52.4053 39.7212 52.5173 42.2292 52.4888 44.0997C52.4603 45.9663 52.2918 47.2086 52.0684 47.8908L51.8168 47.8643C50.7815 39.691 46.6377 31.3706 41.8684 24.2842C37.1003 17.1997 31.7158 11.3615 28.2153 8.15449L28.0574 8.00984L28.2506 7.9251Z" fill="black"/>
<path d="M47.6582 66.5812C46.2032 51.0462 27.3045 24.6439 18.037 13.3846C4.52561 25.747 6.17123 42.1482 8.68297 48.8034C20.0118 72.9812 39.3868 70.7294 47.6582 66.5812Z" fill="#7A846E"/>
<path fill-rule="evenodd" clip-rule="evenodd" d="M18.0501 13.1915L18.1353 13.2951C22.7723 18.9287 29.8178 28.3493 35.8867 38.3056C38.9212 43.2838 41.7128 48.3981 43.8373 53.2414C45.961 58.083 47.4218 62.662 47.7876 66.5678L47.7965 66.6633L47.7142 66.7046C43.5557 68.7902 36.613 70.3969 29.2853 68.4471C21.9514 66.4957 14.2462 60.9854 8.56651 48.8639L8.56421 48.859L8.56229 48.8539C6.03708 42.1629 4.38625 25.6934 17.9519 13.2814L18.0501 13.1915ZM8.80184 48.7478C14.4507 60.8006 22.0963 66.2521 29.349 68.1819C36.5606 70.1008 43.3978 68.5414 47.5198 66.4989C47.1434 62.6578 45.7026 58.1461 43.6014 53.356C41.4835 48.5278 38.6985 43.425 35.668 38.4533C29.644 28.5708 22.6555 19.215 18.0242 13.5779C4.6765 25.877 6.31074 42.1411 8.80184 48.7478Z" fill="black"/>
<path fill-rule="evenodd" clip-rule="evenodd" d="M36.8751 68.906C53.091 68.906 66.2365 55.0689 66.2365 38C66.2365 20.9311 53.091 7.09402 36.8751 7.09402C20.6593 7.09402 7.51377 20.9311 7.51377 38C7.51377 55.0689 20.6593 68.906 36.8751 68.906ZM36.8751 70C53.665 70 67.2759 55.6731 67.2759 38C67.2759 20.3269 53.665 6 36.8751 6C20.0853 6 6.47443 20.3269 6.47443 38C6.47443 55.6731 20.0853 70 36.8751 70Z" fill="black"/>
<path d="M52.2054 47.0256C53.7644 28.564 37.3948 11.9259 32.0682 7.23071L28.3006 7.91447C30.2494 10.1481 35.576 16.776 40.7727 22.1367C45.9694 27.4974 50.5165 40.6894 52.2054 47.0256Z" fill="#333A2B"/>
<path d="M27.651 26.3761C26.2999 31.7368 27.8242 56.1881 28.9502 67.812L32.0682 68.6325L35.1862 68.906L30.1194 49.8975L27.651 26.3761Z" fill="#333A2B"/>
<path d="M65.9767 32.53L8.5531 46.7522L65.0673 28.2906C65.6909 29.4941 65.9334 31.6183 65.9767 32.53Z" fill="#333A2B"/>
<path fill-rule="evenodd" clip-rule="evenodd" d="M38.4198 69.9785C19.4938 64.2233 9.22167 46.4392 6.50391 38.3185L7.4842 37.955C10.1364 45.8797 20.218 63.3048 38.7083 68.9274L38.4198 69.9785Z" fill="black"/>
<path fill-rule="evenodd" clip-rule="evenodd" d="M22.5053 52.3859C15.3929 45.3851 9.84207 37.571 6.93964 32.5404L7.82799 31.9725C10.6852 36.9248 16.1774 44.6595 23.2152 51.5869C30.2603 58.5214 38.8004 64.5938 47.7517 66.3167L47.5648 67.3929C38.3277 65.6149 29.6104 59.3796 22.5053 52.3859Z" fill="black"/>
<path fill-rule="evenodd" clip-rule="evenodd" d="M23.5592 45.0952C16.9435 38.6358 11.5119 31.9721 8.52771 27.7992L9.35809 27.1412C12.3068 31.2646 17.6973 37.8796 24.2661 44.2931C30.8402 50.7119 38.5602 56.8949 46.1674 60.1952L45.7714 61.2067C37.9964 57.8336 30.1696 51.5493 23.5592 45.0952Z" fill="black"/>
<path fill-rule="evenodd" clip-rule="evenodd" d="M42.21 52.1539C28.4015 44.1156 15.4796 29.198 10.7402 22.7448L11.5625 22.0757C16.2638 28.4771 29.083 43.2621 42.713 51.1965L42.21 52.1539Z" fill="black"/>
<path fill-rule="evenodd" clip-rule="evenodd" d="M36.874 41.8919C23.8894 33.9558 16.1455 22.7433 13.684 18.0239L14.5951 17.4974C16.9838 22.0772 24.6049 33.128 37.3959 40.9458L36.874 41.8919Z" fill="black"/>
<path fill-rule="evenodd" clip-rule="evenodd" d="M66.1576 34.8174C57.4438 15.6638 37.5531 10.4569 28.6037 8.86411L28.777 7.7854C37.7562 9.3835 58.1399 14.6609 67.095 34.3449L66.1576 34.8174Z" fill="black"/>
<path fill-rule="evenodd" clip-rule="evenodd" d="M52.2926 24.4128C45.8788 19.6568 38.7291 16.3287 34.1138 14.7244L34.4397 13.6855C39.1353 15.3177 46.3804 18.6905 52.8912 23.5185C59.3882 28.3362 65.2413 34.6679 67.0012 42.246L65.9915 42.5058C64.3216 35.3147 58.7202 29.1791 52.2926 24.4128Z" fill="black"/>
<path fill-rule="evenodd" clip-rule="evenodd" d="M65.2646 46.4745C57.3415 31.7442 45.5859 25.5815 40.9664 23.6004L41.3585 22.5873C46.093 24.6176 58.0864 30.9085 66.1691 45.9355L65.2646 46.4745Z" fill="black"/>
<path fill-rule="evenodd" clip-rule="evenodd" d="M45.2639 33.8177C38.3871 29.8969 31.6054 27.8194 27.4472 27.1909L27.5949 26.108C31.8814 26.7559 38.78 28.8767 45.7589 32.8557C52.7391 36.8354 59.838 42.696 64.4738 50.8472L63.582 51.4091C59.0716 43.4782 52.1394 37.7377 45.2639 33.8177Z" fill="black"/>
<path fill-rule="evenodd" clip-rule="evenodd" d="M38.3389 6.86262C28.997 20.784 15.0376 26.844 9.17981 28.1421L8.9657 27.0716C14.6272 25.817 28.3316 19.8793 37.49 6.23145L38.3389 6.86262Z" fill="black"/>
<path fill-rule="evenodd" clip-rule="evenodd" d="M33.4717 41.6063C24.5242 47.6204 15.4092 50.5207 9.91827 51.2605L9.78632 50.1754C15.1219 49.4565 24.0914 46.6132 32.9123 40.6843C41.7269 34.7596 50.366 25.7724 55.098 12.7786L56.0685 13.1702C51.2386 26.4327 42.4255 35.588 33.4717 41.6063Z" fill="black"/>
<path fill-rule="evenodd" clip-rule="evenodd" d="M28.2618 29.4915C20.5522 34.7554 12.5415 38.3013 7.81345 40.0214L7.47394 38.9874C12.1432 37.2887 20.0735 33.7782 27.6962 28.5736C35.329 23.3623 42.5896 16.4956 46.0116 8.10901L46.9665 8.54074C43.4249 17.2208 35.9615 24.2345 28.2618 29.4915Z" fill="black"/>
<path fill-rule="evenodd" clip-rule="evenodd" d="M39.8977 49.5997C30.7435 55.9037 21.1396 58.8895 15.0961 59.4679L15.002 58.3783C20.8675 57.8171 30.3095 54.8952 39.3287 48.6842C48.3396 42.4787 56.8997 33.0106 61.0648 19.3711L62.0542 19.7059C57.8006 33.6356 49.06 43.29 39.8977 49.5997Z" fill="black"/>
<path fill-rule="evenodd" clip-rule="evenodd" d="M66.6061 34.0482C59.6683 59.4973 38.5732 67.615 28.8648 68.4936L28.7758 67.4036C38.2085 66.55 58.8256 58.6222 65.6071 33.7465L66.6061 34.0482Z" fill="black"/>
<path d="M16.8679 61.111C12.2948 54.2187 14.6159 27.6068 16.3482 15.1623C21.5449 10.3486 26.0487 8.59821 27.651 8.32471C38.1484 12.7008 48.3079 35.7663 52.2054 46.4786C52.829 37.07 48.5677 16.9401 46.2292 8.32471C54.44 11.0598 59.6107 17.0313 61.1698 19.6751C63.7681 36.4136 62.7721 50.0797 61.9493 54.8204C58.9352 61.0563 51.3393 65.3504 47.9182 66.7179C45.3198 52.8239 33.3241 33.8518 27.651 26.1025C25.5723 29.2751 27.4778 55.3219 28.6904 67.9486C25.3645 67.511 19.4229 63.2079 16.8679 61.111Z" fill="#D2FF99"/>
<path fill-rule="evenodd" clip-rule="evenodd" d="M13.393 34.4362C13.7845 25.5937 15.187 17.9277 16.2382 14.0549L17.2375 14.3555C16.2101 18.1409 14.8193 25.7227 14.4313 34.4871C14.0431 43.255 14.661 53.1557 17.6153 61.606L16.6399 61.9839C13.618 53.3402 13.0017 43.2751 13.393 34.4362Z" fill="black"/>
<path fill-rule="evenodd" clip-rule="evenodd" d="M17.8844 36.8574C17.8422 27.8017 18.4074 19.8274 19.1777 15.7397L20.1972 15.9526C19.447 19.9334 18.8816 27.8223 18.9237 36.852C18.9657 45.8754 19.6142 55.9895 21.2742 64.4189L20.2565 64.641C18.5772 56.1132 17.9266 45.9195 17.8844 36.8574Z" fill="black"/>
<path fill-rule="evenodd" clip-rule="evenodd" d="M24.2842 66.9674C21.6712 53.9025 21.5882 30.1398 22.3257 19.3624L23.3624 19.441C22.6275 30.1794 22.7176 53.824 25.3013 66.742L24.2842 66.9674Z" fill="black"/>
<path fill-rule="evenodd" clip-rule="evenodd" d="M26.6655 26.9311C26.7106 26.293 26.7414 25.8569 26.7414 25.5556L27.7808 25.5555C27.7808 25.8918 27.7454 26.3955 27.6969 27.0875C27.6634 27.5641 27.6237 28.13 27.5849 28.7922C27.4881 30.4465 27.3911 32.7729 27.3911 36C27.3911 42.4555 27.7794 52.5214 29.3369 68.028L28.3033 68.143C26.7429 52.6068 26.3518 42.5017 26.3517 36C26.3517 32.7485 26.4495 30.3996 26.5476 28.7249C26.5902 27.996 26.6318 27.4073 26.6655 26.9311Z" fill="black"/>
<path fill-rule="evenodd" clip-rule="evenodd" d="M47.4165 67.1341C41.8367 45.381 25.1271 22.4852 17.5269 13.8942L18.2875 13.1487C25.9309 21.7885 42.7748 44.8414 48.4199 66.849L47.4165 67.1341Z" fill="black"/>
<path fill-rule="evenodd" clip-rule="evenodd" d="M37.323 34.7358C31.2607 24.9253 24.8198 16.3255 20.7679 11.5614L21.5423 10.8317C25.6319 15.6402 32.1048 24.2848 38.1942 34.1393C44.2791 43.9865 50.0083 55.085 52.5761 64.7934L51.5749 65.0868C49.0499 55.5405 43.3897 44.5536 37.323 34.7358Z" fill="black"/>
<path fill-rule="evenodd" clip-rule="evenodd" d="M41.8366 33.3158C35.5298 23.5283 28.4703 14.702 23.7774 9.80754L24.5089 9.0304C29.2568 13.9821 36.3583 22.8652 42.6968 32.7017C49.0268 42.5251 54.6419 53.3693 56.3524 62.2332L55.3339 62.4509C53.6665 53.8105 48.1519 43.1163 41.8366 33.3158Z" fill="black"/>
<path fill-rule="evenodd" clip-rule="evenodd" d="M42.0486 24.9579C37.1242 17.3612 31.3811 11.3206 27.468 8.21456L28.0938 7.34106C32.1057 10.5256 37.9253 16.656 42.9071 24.3413C47.8874 32.0243 52.0649 41.3141 52.7238 50.8149L51.6872 50.8946C51.0468 41.6603 46.9745 32.557 42.0486 24.9579Z" fill="black"/>
<path fill-rule="evenodd" clip-rule="evenodd" d="M52.0756 52.0756C52.386 34.1032 47.9752 15.1596 45.7382 8.36725L46.7202 8.00891C48.9871 14.8918 53.4279 33.9653 53.1148 52.0955L52.0756 52.0756Z" fill="black"/>
<path fill-rule="evenodd" clip-rule="evenodd" d="M51.2366 11.1465C51.1715 10.9238 51.1119 10.72 51.0585 10.5347L52.0532 10.2174C52.1066 10.4028 52.166 10.6061 52.2308 10.8278C53.7559 16.048 58.2513 31.435 56.7518 61.6866L55.7139 61.6296C57.2044 31.559 52.7434 16.3005 51.2366 11.1465Z" fill="black"/>
<path fill-rule="evenodd" clip-rule="evenodd" d="M58.9791 36.5757C58.2486 27.4172 56.8882 18.1483 55.0956 13.0268L56.0708 12.6486C57.9159 17.9202 59.2837 27.318 60.0148 36.4842C60.7459 45.6503 60.8493 54.7009 60.1233 59.2866L59.0981 59.1067C59.8011 54.6667 59.7096 45.7344 58.9791 36.5757Z" fill="black"/>
<path fill-rule="evenodd" clip-rule="evenodd" d="M61.4335 55.9838C63.5044 38.4357 61.3418 22.5741 60.1503 18.1845L61.1497 17.8839C62.3833 22.4287 64.5513 38.4395 62.4649 56.1187L61.4335 55.9838Z" fill="black"/>
<path fill-rule="evenodd" clip-rule="evenodd" d="M0.108459 49.4871L35.2242 38.1524C34.3141 36.5152 33.4541 34.9687 32.7517 33.7061L0.108459 49.4871ZM51.5903 32.8697L47.8933 34.063C47.0197 31.9935 45.9626 29.7419 44.8803 27.9265L50.4504 25.4197C50.8053 27.4659 51.2518 30.2559 51.5903 32.8697ZM62.4651 29.3595L71.2556 26.5221C72.3387 26.1724 73.2668 25.4255 73.8713 24.417L74.0492 24.1203C75.5729 21.5782 74.47 18.2047 71.7829 17.1878C70.7209 16.786 69.5538 16.8222 68.5162 17.2892L61.0894 20.6316C61.7573 22.167 62.1929 25.6351 62.4651 29.3595ZM70.9655 21.6705C70.6293 20.4814 68.9187 19.88 67.1447 20.3274C65.3708 20.7748 64.2053 22.1014 64.5416 23.2906C64.8778 24.4797 66.5885 25.0811 68.3624 24.6337C70.1363 24.1863 71.3018 22.8597 70.9655 21.6705Z" fill="#F5F2F1"/>
<path fill-rule="evenodd" clip-rule="evenodd" d="M68.414 17.0378C69.512 16.5436 70.747 16.5053 71.8708 16.9305C74.7143 18.0065 75.8813 21.5763 74.2689 24.2663L74.0911 24.563C73.4534 25.6269 72.4744 26.4148 71.3318 26.7836L62.231 29.7212L62.2061 29.3805C62.0702 27.5221 61.8939 25.7317 61.6689 24.217C61.4428 22.6944 61.171 21.4761 60.8532 20.7455L60.7422 20.4904L68.414 17.0378ZM71.695 17.4453C70.6948 17.0668 69.5956 17.1009 68.6183 17.5407L61.4296 20.776C61.7317 21.5842 61.9785 22.7602 62.1823 24.1325C62.3963 25.5732 62.566 27.2534 62.6988 28.998L71.1794 26.2606C72.2031 25.9302 73.0802 25.2243 73.6516 24.2711L73.8294 23.9744C75.2645 21.5802 74.2258 18.403 71.695 17.4453ZM69.512 20.6448C68.8719 20.4198 68.0507 20.3802 67.2053 20.5935C66.3594 20.8068 65.673 21.2267 65.2426 21.7166C64.8114 22.2075 64.6569 22.7397 64.7906 23.2126C64.926 23.6915 65.3507 24.0899 65.9951 24.3165C66.6352 24.5415 67.4564 24.581 68.3018 24.3678C69.1478 24.1545 69.8341 23.7346 70.2645 23.2446C70.6957 22.7538 70.8502 22.2215 70.7165 21.7486C70.5811 21.2697 70.1564 20.8713 69.512 20.6448ZM69.6766 20.1259C70.415 20.3855 71.0137 20.8823 71.2146 21.5926C71.4171 22.3088 71.157 23.0345 70.646 23.616C70.1343 24.1986 69.3509 24.6657 68.4229 24.8997C67.4945 25.1339 66.5734 25.0965 65.8305 24.8353C65.0921 24.5758 64.4934 24.0789 64.2925 23.3687C64.09 22.6524 64.3501 21.9268 64.8611 21.3452C65.3728 20.7627 66.1562 20.2955 67.0842 20.0615C68.0126 19.8274 68.9337 19.8648 69.6766 20.1259ZM50.6476 25.0335L50.706 25.3706C51.0614 27.4195 51.5086 30.2138 51.8477 32.8328L51.8776 33.0631L47.7493 34.3956L47.6558 34.1741C46.7846 32.1101 45.7332 29.8717 44.6602 28.0719L44.4986 27.8009L50.6476 25.0335ZM45.2604 28.053C46.257 29.767 47.2229 31.8191 48.0369 33.7306L51.3028 32.6765C50.9875 30.2765 50.5864 27.7503 50.253 25.806L45.2604 28.053ZM32.857 33.3543L32.9759 33.568C33.6784 34.8306 34.5383 36.3772 35.4484 38.0143L35.6142 38.3126L0.184623 49.7487L0 49.2386L32.857 33.3543ZM3.76252 48.0216L34.8341 37.9923C34.0359 36.5566 33.282 35.2007 32.6464 34.0581L3.76252 48.0216Z" fill="black"/>
</svg>
