<svg width="78" height="77" viewBox="0 0 78 77" fill="none" xmlns="http://www.w3.org/2000/svg">
<path d="M37.8 26H39.2C39.4 23.2 40.2 19.4 41.5 14.7C42.8 10 43.6 6.99999 43.6 5.59999C43.6 2.1 41.7 -4.76837e-06 38.6 -4.76837e-06C35.5 -4.76837e-06 33.6 2.1 33.6 5.59999C33.6 6.99999 34.3 9.7 35.5 14C36.7 18.2 37.5 22.2 37.8 26ZM47.9 30.1C50 28.2 53.8 25.7 59.3 22.8C64.7 19.9 67.4 17.3 67.4 15C67.4 12.5 64.8 9.7 62.4 9.7C59.8 9.7 57.1 12.3 54.4 17.5L52.4 21.3C51.4 23.3 48.3 27.5 46.9 29.1L47.9 30.1ZM29.2 29.9L30.2 29C27.8 26.2 25.2 22.3 22.5 17.3C19.8 12.2 17.2 9.7 14.8 9.7C12.5 9.7 9.8 12.4 9.8 14.6C9.8 17.2 12.4 19.8 17.6 22.6L21.3 24.6C25.1 26.6 27.6 28.6 29.2 29.9ZM38.7 48.4C44.2 48.4 48.5 44.1 48.5 38.6C48.5 33.1 44.2 28.6 38.7 28.6C33.2 28.6 28.7 33.1 28.7 38.6C28.7 44.1 33.2 48.4 38.7 48.4ZM5.5 43.5C6.9 43.5 9.9 42.8 14.6 41.4C19.3 40 23.1 39.3 25.9 39.1V37.7C23.2 37.5 18.2 36.6 12.1 34.8C9.1 33.9 6.9 33.5 5.5 33.5C2 33.5 0.1 35.4 0.1 38.5C0.1 41.7 2.1 43.5 5.5 43.5ZM71.5 43.5C75 43.5 77.1 41.7 77.1 38.5C77.1 35.4 75 33.5 71.5 33.5C70 33.5 67.2 34.1 63 35.4C58.9 36.7 54.9 37.4 51.1 37.7V39.1C53.9 39.3 57.6 40.1 62.4 41.4C67.1 42.7 70.1 43.5 71.5 43.5ZM62.4 67.3C64.5 67.3 67.4 64.6 67.4 62.2C67.4 59.7 64.8 57.2 59.5 54.3L55.8 52.3C53.8 51.2 49.2 47.9 48 46.8L47 47.8C48.3 49.3 50.3 51.8 52.4 55.7L54.4 59.4C57.2 64.6 59.8 67.3 62.4 67.3ZM14.8 67.3C17.3 67.3 20 64.7 22.7 59.6L24.7 55.8C25.7 53.9 28.7 49.3 30 47.9L29.1 46.9C25.9 49.5 23.3 51.3 21.3 52.4L17.6 54.4C12.4 57.2 9.8 59.8 9.8 62.4C9.8 64.7 12.5 67.3 14.8 67.3ZM38.6 77C41.7 77 43.6 75 43.6 71.6C43.6 70.2 42.9 67.2 41.5 62.5C40.1 57.7 39.4 54 39.2 51.2H37.8C37.5 54.8 36.7 58.8 35.5 63.1C34.3 67.5 33.6 70.3 33.6 71.6C33.6 75.1 35.5 77 38.6 77Z" fill="#001405"/>
</svg>
