<svg width="116" height="116" viewBox="0 0 116 116" fill="none" xmlns="http://www.w3.org/2000/svg">
<path d="M24.45 101.55C27 101.55 29.55 100.35 31.8 98.1C35.1 94.8 37.5 90.45 40.2 85.2C42.6 80.55 45.45 75.6 49.8 69.9C51.6 71.1 53.7 72 55.95 72.45C54.9 79.5 53.4 84.9 51.75 90C49.95 95.7 48.6 100.35 48.6 105C48.6 111.45 52.35 115.2 58.35 115.2C64.35 115.2 68.1 111.45 68.1 105C68.1 100.35 66.75 95.7 64.95 90C63.3 84.9 61.95 79.5 60.9 72.45C63.15 72.15 65.25 71.25 67.05 69.9C71.25 75.75 74.1 80.55 76.5 85.2C79.2 90.45 81.6 94.8 84.9 98.1C87.15 100.35 89.7 101.55 92.25 101.55C94.65 101.55 96.9 100.5 99 98.4C101.1 96.3 102.15 94.05 102.15 91.65C102.15 89.1 100.95 86.55 98.7 84.3C95.4 81 91.05 78.6 85.8 75.9C81.15 73.5 76.35 70.65 70.5 66.45C71.85 64.65 72.6 62.55 73.05 60.3C80.1 61.35 85.5 62.7 90.6 64.35C96.3 66.15 100.95 67.5 105.6 67.5C112.05 67.5 115.8 63.75 115.8 57.75C115.8 51.75 112.05 48 105.6 48C100.95 48 96.3 49.35 90.6 51.15C85.5 52.8 80.1 54.3 73.05 55.35C72.6 52.95 71.7 51 70.5 49.2C76.2 44.85 81.15 42 85.8 39.6C91.05 36.9 95.4 34.5 98.7 31.2C100.95 28.95 102.15 26.4 102.15 23.85C102.15 21.45 101.1 19.2 99 17.1C96.9 15 94.65 13.95 92.25 13.95C89.7 13.95 87.15 15.15 84.9 17.4C81.6 20.7 79.2 25.05 76.5 30.3C74.1 34.95 71.25 39.9 66.9 45.6C65.25 44.4 63.15 43.5 60.9 43.05C61.95 36 63.3 30.6 64.95 25.5C66.75 19.8 68.1 15.15 68.1 10.5C68.1 4.04999 64.35 0.299998 58.35 0.299998C52.35 0.299998 48.6 4.04999 48.6 10.5C48.6 15.15 49.95 19.8 51.75 25.5C53.4 30.6 54.9 36 55.95 43.2C53.7 43.5 51.6 44.4 49.8 45.75C45.45 39.9 42.6 34.95 40.2 30.3C37.5 25.05 35.1 20.7 31.8 17.4C29.55 15.15 27 13.95 24.45 13.95C22.05 13.95 19.8 15 17.7 17.1C15.6 19.2 14.55 21.45 14.55 23.85C14.55 26.4 15.75 28.95 18 31.2C21.3 34.5 25.65 36.9 30.9 39.6C35.55 42 40.5 44.85 46.35 49.2C45 51 44.1 53.1 43.8 55.35C36.6 54.3 31.2 52.8 26.1 51.15C20.4 49.35 15.75 48 11.1 48C4.65 48 0.900001 51.75 0.900001 57.75C0.900001 63.75 4.65 67.5 11.1 67.5C15.75 67.5 20.4 66.15 26.1 64.35C31.2 62.7 36.6 61.35 43.65 60.3C44.1 62.55 45 64.65 46.2 66.3C40.5 70.65 35.55 73.5 30.9 75.9C25.65 78.6 21.3 81 18 84.3C15.75 86.55 14.55 89.1 14.55 91.65C14.55 94.05 15.6 96.3 17.7 98.4C19.8 100.5 22.05 101.55 24.45 101.55Z" fill="#001405"/>
</svg>
